<svg height="512" viewBox="0 0 64 64" width="512" xmlns="http://www.w3.org/2000/svg"><g id="Database-cloud-laptop-computer-smartphone"><rect fill="#46f8ff" height="16" rx="2" width="12" x="3" y="45"/><path d="m15 47v12a2.006 2.006 0 0 1 -2 2h-5a2.006 2.006 0 0 0 2-2v-12a2.006 2.006 0 0 0 -2-2h5a2.006 2.006 0 0 1 2 2z" fill="#00b6bd"/><path d="m61 57v2a2.006 2.006 0 0 1 -2 2h-14a2.006 2.006 0 0 1 -2-2v-2z" fill="#ff7956"/><path d="m61 11v2a2.006 2.006 0 0 1 -2 2h-14a2.006 2.006 0 0 1 -2-2v-2z" fill="#ff7956"/><path d="m61 5v6h-18v-6a2.006 2.006 0 0 1 2-2h14a2.006 2.006 0 0 1 2 2z" fill="#46f8ff"/><path d="m61 11v2a2.006 2.006 0 0 1 -2 2h-4a2.006 2.006 0 0 0 2-2v-2z" fill="#ff5023"/><path d="m61 5v6h-4v-6a2.006 2.006 0 0 0 -2-2h4a2.006 2.006 0 0 1 2 2z" fill="#00b6bd"/><path d="m60 49v8h-16v-8a2.006 2.006 0 0 1 2-2h12a2.006 2.006 0 0 1 2 2z" fill="#46f8ff"/><path d="m61 57v2a2.006 2.006 0 0 1 -2 2h-4a2.006 2.006 0 0 0 2-2v-2z" fill="#ff5023"/><path d="m60 49v8h-4v-8a2.006 2.006 0 0 0 -2-2h4a2.006 2.006 0 0 1 2 2z" fill="#00b6bd"/><path d="m50 15h4v4h-4z" fill="#fee9ab"/><path d="m52 15h2v4h-2z" fill="#ffd422"/><path d="m23 38h18v8h-18z" fill="#fee9ab"/><path d="m23 30h18v8h-18z" fill="#ff7956"/><path d="m23 22h18v8h-18z" fill="#fee9ab"/><path d="m37 38h4v8h-4z" fill="#ffd422"/><path d="m37 30h4v8h-4z" fill="#ff5023"/><path d="m37 22h4v8h-4z" fill="#ffd422"/><path d="m23 9a4 4 0 0 1 0 8h-15a5 5 0 0 1 0-10c.03 0 .07.01.1.01a4.987 4.987 0 0 1 9.16-1.6 4.049 4.049 0 0 1 1.74-.41 4 4 0 0 1 4 4z" fill="#2488ff"/><path d="m27 13a4 4 0 0 1 -4 4h-4a4 4 0 0 0 0-8 4 4 0 0 0 -4-4 4.049 4.049 0 0 0 -1.74.41 5.08 5.08 0 0 0 -2.26-1.99 4.971 4.971 0 0 1 6.26 1.99 4.049 4.049 0 0 1 1.74-.41 4 4 0 0 1 4 4 4 4 0 0 1 4 4z" fill="#006df0"/><rect fill="#57a4ff" height="12" rx="2" width="8" x="11" y="49"/><path d="m19 51v8a2.006 2.006 0 0 1 -2 2h-4a2.006 2.006 0 0 0 2-2v-8a2.006 2.006 0 0 0 -2-2h4a2.006 2.006 0 0 1 2 2z" fill="#006df0"/><path d="m41 21h-18a1 1 0 0 0 -1 1v24a1 1 0 0 0 1 1h18a1 1 0 0 0 1-1v-24a1 1 0 0 0 -1-1zm-1 24h-16v-6h16zm0-8h-16v-6h16zm0-8h-16v-6h16z"/><path d="m59 2h-14a3.009 3.009 0 0 0 -3 3v8a3.009 3.009 0 0 0 3 3h4v2h-2v2h10v-2h-2v-2h4a3.009 3.009 0 0 0 3-3v-8a3.009 3.009 0 0 0 -3-3zm-6 16h-2v-2h2zm7-5a1 1 0 0 1 -1 1h-14a1 1 0 0 1 -1-1v-1h16zm0-3h-16v-5a1 1 0 0 1 1-1h14a1 1 0 0 1 1 1z"/><path d="m61 56v-7a3.009 3.009 0 0 0 -3-3h-12a3.009 3.009 0 0 0 -3 3v7a1 1 0 0 0 -1 1v2a3.009 3.009 0 0 0 3 3h14a3.009 3.009 0 0 0 3-3v-2a1 1 0 0 0 -1-1zm-16-7a1 1 0 0 1 1-1h12a1 1 0 0 1 1 1v7h-14zm15 10a1 1 0 0 1 -1 1h-14a1 1 0 0 1 -1-1v-1h16z"/><path d="m17 48h-1v-1a3.009 3.009 0 0 0 -3-3h-8a3.009 3.009 0 0 0 -3 3v12a3.009 3.009 0 0 0 3 3h12a3.009 3.009 0 0 0 3-3v-8a3.009 3.009 0 0 0 -3-3zm-6.82 12h-5.18a1 1 0 0 1 -1-1v-12a1 1 0 0 1 1-1h8a1 1 0 0 1 1 1v1h-1a3.009 3.009 0 0 0 -3 3v8a3 3 0 0 0 .18 1zm7.82-1a1 1 0 0 1 -1 1h-4a1 1 0 0 1 -1-1v-8a1 1 0 0 1 1-1h4a1 1 0 0 1 1 1z"/><path d="m23.92 8.08a4.985 4.985 0 0 0 -6.3-3.88 5.916 5.916 0 0 0 -4.62-2.2 6.024 6.024 0 0 0 -5.67 4.04 6 6 0 0 0 .67 11.96h15a5 5 0 0 0 .92-9.92zm-.92 7.92h-15a4.006 4.006 0 0 1 -.09-8.01.777.777 0 0 0 .16.02 1.009 1.009 0 0 0 1.01-.8 3.99 3.99 0 0 1 7.33-1.28.981.981 0 0 0 1.29.38 2.977 2.977 0 0 1 4.3 2.69 1 1 0 0 0 1 1 3 3 0 0 1 0 6z"/><path d="m26 25h2v2h-2z"/><path d="m31 25h2v2h-2z"/><path d="m36 25h2v2h-2z"/><path d="m26 33h2v2h-2z"/><path d="m31 33h2v2h-2z"/><path d="m36 33h2v2h-2z"/><path d="m26 41h2v2h-2z"/><path d="m31 41h2v2h-2z"/><path d="m36 41h2v2h-2z"/><path d="m53 29v-7h-2v6h-7v2h8a1 1 0 0 0 1-1z"/><path d="m44 36h7v8h2v-9a1 1 0 0 0 -1-1h-8z"/><path d="m13 20h-2v9a1 1 0 0 0 1 1h8v-2h-7z"/><path d="m11 35v7h2v-6h7v-2h-8a1 1 0 0 0 -1 1z"/></g></svg>