<svg height="512" viewBox="0 0 64 64" width="512" xmlns="http://www.w3.org/2000/svg"><g id="Server-database-big_data-configuration-computer" data-name="Server-database-big data-configuration-computer"><path d="m9 17a3 3 0 1 0 -3-3 3 3 0 0 0 3 3zm0-4a1 1 0 1 1 -1 1 1 1 0 0 1 1-1z"/><path d="m9 29a3 3 0 1 0 -3-3 3 3 0 0 0 3 3zm0-4a1 1 0 1 1 -1 1 1 1 0 0 1 1-1z"/><path d="m9 35a3 3 0 1 0 3 3 3 3 0 0 0 -3-3zm0 4a1 1 0 1 1 1-1 1 1 0 0 1 -1 1z"/><path d="m9 47a3 3 0 1 0 3 3 3 3 0 0 0 -3-3zm0 4a1 1 0 1 1 1-1 1 1 0 0 1 -1 1z"/><path d="m14 13h2v2h-2z"/><path d="m18 13h2v2h-2z"/><path d="m22 13h2v2h-2z"/><path d="m26 13h2v2h-2z"/><path d="m30 13h2v2h-2z"/><path d="m34 13h2v2h-2z"/><path d="m14 25h2v2h-2z"/><path d="m18 25h2v2h-2z"/><path d="m22 25h2v2h-2z"/><path d="m26 25h2v2h-2z"/><path d="m30 25h2v2h-2z"/><path d="m34 25h2v2h-2z"/><path d="m14 37h2v2h-2z"/><path d="m18 37h2v2h-2z"/><path d="m22 37h2v2h-2z"/><path d="m14 49h2v2h-2z"/><path d="m18 49h2v2h-2z"/><path d="m59 2h-14a3.009 3.009 0 0 0 -3 3v8a3.009 3.009 0 0 0 3 3h4v2h-2v2h4v2h2v-2h4v-2h-2v-2h4a3.009 3.009 0 0 0 3-3v-8a3.009 3.009 0 0 0 -3-3zm-6 16h-2v-2h2zm7-5a1 1 0 0 1 -1 1h-14a1 1 0 0 1 -1-1v-1h16zm0-3h-16v-5a1 1 0 0 1 1-1h14a1 1 0 0 1 1 1z"/><path d="m53 42h-1.93l1.37-1.36a1.008 1.008 0 0 0 0-1.42l-5.66-5.66a1.008 1.008 0 0 0 -1.42 0l-1.36 1.37v-1.93a1 1 0 0 0 -1-1h-3v-24a1 1 0 0 0 -1-1h-36a1 1 0 0 0 -1 1v48a1 1 0 0 0 1 1h24.79l3.43 3.44a1.008 1.008 0 0 0 1.42 0l1.36-1.37v1.93a1 1 0 0 0 1 1h8a1 1 0 0 0 1-1v-1.93l1.36 1.37a1.008 1.008 0 0 0 1.42 0l5.66-5.66a1.008 1.008 0 0 0 0-1.42l-1.37-1.36h1.93a1 1 0 0 0 1-1v-8a1 1 0 0 0 -1-1zm-49-33h34v10h-34zm0 12h34v10h-34zm0 12h30v1.93l-1.36-1.37a1.008 1.008 0 0 0 -1.42 0l-5.66 5.66a1.008 1.008 0 0 0 0 1.42l1.37 1.36h-1.93a1 1 0 0 0 -1 1h-20zm21.56 21.78.23.22h-21.79v-10h20v6a1 1 0 0 0 1 1h1.93l-1.37 1.36a1.008 1.008 0 0 0 0 1.42zm26.44-4.78h-3.34a1 1 0 0 0 -.71 1.71l2.36 2.36-4.24 4.24-2.36-2.36a1 1 0 0 0 -1.71.71v3.34h-6v-3.34a1 1 0 0 0 -1.71-.71l-2.36 2.36-4.24-4.24 2.36-2.36a1 1 0 0 0 -.71-1.71h-3.34v-6h3.34a1 1 0 0 0 .71-1.71l-2.36-2.36 4.24-4.24 2.36 2.36a1 1 0 0 0 1.71-.71v-3.34h6v3.34a1 1 0 0 0 1.71.71l2.36-2.36 4.24 4.24-2.36 2.36a1 1 0 0 0 .71 1.71h3.34z"/><path d="m39 40a7 7 0 1 0 7 7 7.008 7.008 0 0 0 -7-7zm0 12a5 5 0 1 1 5-5 5.006 5.006 0 0 1 -5 5z"/><path d="m42 25h2v2h-2z"/><path d="m46 25h2v2h-2z"/><path d="m54 32h2v2h-2z"/><path d="m61 32h-3v2h2v2h2v-3a1 1 0 0 0 -1-1z"/><path d="m50 32h2v2h-2z"/><path d="m60 38h2v2h-2z"/><path d="m60 42h2v2h-2z"/><path d="m60 46h2v2h-2z"/><path d="m60 50h2v2h-2z"/><path d="m60 54h2v2h-2z"/><path d="m60 60h-2v2h3a1 1 0 0 0 1-1v-3h-2z"/><path d="m54 60h2v2h-2z"/><path d="m50 60h2v2h-2z"/><path d="m53 26v-2h-2v1h-1v2h2a1 1 0 0 0 1-1z"/></g></svg>