<?xml version="1.0" encoding="UTF-8" standalone="no"?>
<svg
   xmlns:dc="http://purl.org/dc/elements/1.1/"
   xmlns:cc="http://creativecommons.org/ns#"
   xmlns:rdf="http://www.w3.org/1999/02/22-rdf-syntax-ns#"
   xmlns:svg="http://www.w3.org/2000/svg"
   xmlns="http://www.w3.org/2000/svg"
   xmlns:sodipodi="http://sodipodi.sourceforge.net/DTD/sodipodi-0.dtd"
   xmlns:inkscape="http://www.inkscape.org/namespaces/inkscape"
   height="512"
   viewBox="0 0 64 64"
   width="512"
   version="1.1"
   id="svg27"
   sodipodi:docname="exam.svg"
   inkscape:version="0.92.5 (2060ec1f9f, 2020-04-08)">
  <metadata
     id="metadata33">
    <rdf:RDF>
      <cc:Work
         rdf:about="">
        <dc:format>image/svg+xml</dc:format>
        <dc:type
           rdf:resource="http://purl.org/dc/dcmitype/StillImage" />
      </cc:Work>
    </rdf:RDF>
  </metadata>
  <defs
     id="defs31" />
  <sodipodi:namedview
     pagecolor="#ffffff"
     bordercolor="#666666"
     borderopacity="1"
     objecttolerance="10"
     gridtolerance="10"
     guidetolerance="10"
     inkscape:pageopacity="0"
     inkscape:pageshadow="2"
     inkscape:window-width="1366"
     inkscape:window-height="712"
     id="namedview29"
     showgrid="false"
     inkscape:zoom="0.4609375"
     inkscape:cx="256"
     inkscape:cy="256"
     inkscape:window-x="0"
     inkscape:window-y="28"
     inkscape:window-maximized="1"
     inkscape:current-layer="svg27" />
  <g
     id="Layer_7"
     data-name="Layer 7"
     transform="matrix(0.89503442,0,0,1,7.6981859,0.54237288)">
    <path
       d="m 10,11 h 2 v 8 h 2 v -8 h 2 V 9 h -6 z"
       id="path2"
       inkscape:connector-curvature="0" />
    <path
       d="m 34,11 h 2 v 8 h 2 v -8 h 2 V 9 h -6 z"
       id="path4"
       inkscape:connector-curvature="0" />
    <path
       d="m 18,10 v 8 a 1,1 0 0 0 1,1 h 5 v -2 h -4 v -2 h 4 v -2 h -4 v -2 h 4 V 9 h -5 a 1,1 0 0 0 -1,1 z"
       id="path6"
       inkscape:connector-curvature="0" />
    <path
       d="m 26,12 a 3,3 0 0 0 3,3 1,1 0 0 1 0,2 h -3 v 2 h 3 a 3,3 0 0 0 0,-6 1,1 0 0 1 0,-2 h 3 V 9 h -3 a 3,3 0 0 0 -3,3 z"
       id="path8"
       inkscape:connector-curvature="0" />
    <path
       d="m 7,23 h 36 a 1,1 0 0 0 1,-1 V 6 A 1,1 0 0 0 43,5 H 7 A 1,1 0 0 0 6,6 v 16 a 1,1 0 0 0 1,1 z M 8,7 H 42 V 21 H 8 Z"
       id="path10"
       inkscape:connector-curvature="0" />
    <path
       d="m 6,35 h 6 a 1,1 0 0 0 1,-1 v -5.59 l 2.71,-2.7 -1.42,-1.42 -2.7,2.71 H 6 a 1,1 0 0 0 -1,1 v 6 a 1,1 0 0 0 1,1 z m 5,-2 H 8.41 L 11,30.41 Z M 9.59,29 7,31.59 V 29 Z"
       id="path12"
       inkscape:connector-curvature="0" />
    <path
       d="M 12,47 H 6 a 1,1 0 0 0 -1,1 v 6 a 1,1 0 0 0 1,1 h 6 a 1,1 0 0 0 1,-1 v -6 a 1,1 0 0 0 -1,-1 z m -1,6 H 7 v -4 h 4 z"
       id="path14"
       inkscape:connector-curvature="0" />
    <path
       d="M 13.29,35.29 11.59,37 H 6 a 1,1 0 0 0 -1,1 v 6 a 1,1 0 0 0 1,1 h 6 a 1,1 0 0 0 1,-1 v -5.59 l 1.71,-1.7 z M 9.59,39 7,41.59 V 39 Z M 11,43 H 8.41 L 11,40.41 Z"
       id="path16"
       inkscape:connector-curvature="0" />
    <path
       d="m 15,28 h 29 v 2 H 15 Z"
       id="path18"
       inkscape:connector-curvature="0" />
    <path
       d="m 15,48 h 13 v 2 H 15 Z"
       id="path20"
       inkscape:connector-curvature="0" />
    <path
       d="m 15,52 h 29 v 2 H 15 Z"
       id="path22"
       inkscape:connector-curvature="0" />
    <path
       d="m 62.71,22.29 -4,-4 a 1,1 0 0 0 -1.42,0 L 49,26.59 V 2 A 1,1 0 0 0 48,1 H 2 A 1,1 0 0 0 1,2 v 60 a 1,1 0 0 0 1,1 h 46 a 1,1 0 0 0 1,-1 V 37.41 l 13.71,-13.7 a 1,1 0 0 0 0,-1.42 z M 34.34,44.75 36.25,46.66 32.9,48.1 Z M 35.41,43 54,24.41 56.59,27 38,45.59 Z M 47,61 H 3 V 3 H 47 V 28.59 L 43.59,32 H 15 v 2 h 26.59 l -4,4 H 15 v 2 h 20.59 l -2,2 H 15 v 2 h 17.48 l -2.4,5.61 A 1,1 0 0 0 31,51 1,1 0 0 0 31.39,50.92 l 7,-3 a 1.11,1.11 0 0 0 0.32,-0.21 L 47,39.41 Z M 58,25.59 55.41,23 58,20.41 60.59,23 Z"
       id="path24"
       inkscape:connector-curvature="0" />
  </g>
</svg>
